<svg width="96.612" height="74.301" viewBox="0 0 96.612 74.301" xmlns="http://www.w3.org/2000/svg"><style>.cl{fill:#587a52}@media (prefers-color-scheme:dark){.cl{fill:#6a9f60}}</style><g id="svgGroup" stroke-linecap="round" fill-rule="evenodd" font-size="9pt"><path d="M 39.7 9.9 Q 43.3 9.9 46.3 10.25 Q 49.3 10.6 51.45 11.3 Q 53.6 12 54.85 12.95 Q 56.1 13.9 56.1 15.1 Q 56.1 15.9 55.75 17.05 Q 55.4 18.2 54.9 19.4 Q 54.4 20.6 53.75 21.8 Q 53.1 23 52.5 23.8 Q 52.2 24 51.85 23.75 Q 51.5 23.5 51.7 23.1 Q 53.8 19.4 52.6 17.4 Q 51.2 15.1 47 13.45 Q 42.8 11.8 37.3 11.8 Q 30.1 11.8 24.2 14.35 Q 18.3 16.9 14.05 21.55 Q 9.8 26.2 7.45 32.6 Q 5.1 39 5.1 46.7 Q 5.1 52.3 6.6 57.05 Q 8.1 61.8 11 65.25 Q 13.9 68.7 18.1 70.65 Q 22.3 72.6 27.7 72.6 Q 34.9 72.6 39.7 68.15 Q 44.5 63.7 46.5 56.3 Q 46.7 55.8 47.15 55.9 Q 47.6 56 47.6 56.5 Q 47.2 58.6 46.4 61.15 Q 45.6 63.7 44.7 65.95 Q 43.8 68.2 42.95 69.85 Q 42.1 71.5 41.5 71.7 Q 38.3 72.9 34.4 73.6 Q 30.5 74.3 26.1 74.3 Q 20 74.3 15.15 72.45 Q 10.3 70.6 6.95 67.3 Q 3.6 64 1.8 59.5 Q 0 55 0 49.8 Q 0 41.8 2.9 34.55 Q 5.8 27.3 11.05 21.85 Q 16.3 16.4 23.6 13.15 Q 30.9 9.9 39.7 9.9 Z M 93 0 Q 95.6 0 96.35 2.4 Q 97.1 4.8 95.7 7.5 Q 95.5 7.7 95.2 7.5 Q 94.9 7.3 94.8 7 Q 95 5.8 93.95 5 Q 92.9 4.2 90.7 4.2 Q 86.4 4.2 82.2 7.8 Q 78 11.4 74.1 17.15 Q 70.2 22.9 66.85 30 Q 63.5 37.1 61.05 44.15 Q 58.6 51.2 57.2 57.45 Q 55.8 63.7 55.8 67.6 Q 55.8 70.6 57.5 70.6 Q 58.7 70.6 59.85 69.6 Q 61 68.6 62.5 66.6 Q 62.8 66.4 63.05 66.65 Q 63.3 66.9 63.2 67.3 Q 61.2 70.4 58.8 72.35 Q 56.4 74.3 54.7 74.3 Q 53.4 74.3 52.6 73.25 Q 51.8 72.2 51.8 70.4 Q 51.8 67.6 52.8 63.15 Q 53.8 58.7 55.6 53.2 Q 57.4 47.7 59.95 41.65 Q 62.5 35.6 65.5 29.7 Q 68.5 23.8 71.85 18.4 Q 75.2 13 78.75 8.9 Q 82.3 4.8 85.9 2.4 Q 89.5 0 93 0 Z" vector-effect="non-scaling-stroke" class="cl"/></g></svg>